<?xml version="1.0" standalone="no"?>
<!DOCTYPE svg PUBLIC "-//W3C//DTD SVG 20010904//EN"
 "http://www.w3.org/TR/2001/REC-SVG-20010904/DTD/svg10.dtd">
<svg version="1.0" xmlns="http://www.w3.org/2000/svg"
 width="519.000000pt" height="383.000000pt" viewBox="0 0 519.000000 383.000000"
 preserveAspectRatio="xMidYMid meet">

<g transform="translate(0.000000,383.000000) scale(0.100000,-0.100000)"
fill="#000000" stroke="none">
<path d="M2070 2964 c-144 -28 -319 -103 -413 -177 -57 -45 -207 -203 -207
-218 0 -5 -13 -27 -29 -51 -87 -131 -140 -318 -148 -518 -4 -108 -2 -142 21
-248 26 -125 74 -249 127 -330 16 -24 29 -46 29 -51 0 -17 156 -178 220 -227
160 -121 366 -183 568 -171 373 22 688 273 815 647 47 138 57 198 57 350 0
152 -10 212 -57 350 -106 311 -343 540 -647 622 -69 19 -280 33 -336 22z m126
-375 c199 -60 364 -236 419 -449 23 -87 23 -268 0 -346 -34 -116 -85 -204
-170 -290 -120 -121 -241 -174 -400 -174 -100 0 -177 19 -268 68 -238 124
-372 432 -313 714 30 141 125 296 230 378 56 42 163 95 224 109 72 17 205 12
278 -10z"/>
<path d="M1908 2471 c-148 -48 -263 -164 -320 -322 -32 -92 -32 -266 1 -359
49 -139 147 -247 276 -306 78 -36 213 -45 301 -19 146 42 264 152 324 306 27
67 38 248 21 327 -26 121 -121 259 -221 321 -115 71 -261 90 -382 52z m166
-245 c159 -93 195 -313 74 -451 -80 -91 -192 -119 -293 -71 -236 110 -213 466
35 547 46 15 137 3 184 -25z"/>
<path d="M1895 2126 c-68 -30 -103 -103 -92 -188 14 -104 129 -169 217 -123
80 41 112 151 68 234 -13 25 -35 53 -49 64 -34 25 -105 31 -144 13z"/>
<path d="M3656 2718 c-3 -50 -6 -141 -7 -202 -1 -172 -5 -187 -65 -234 -29
-22 -64 -58 -79 -79 -92 -131 -158 -229 -179 -267 -26 -47 -97 -158 -107 -166
-10 -9 -30 -66 -34 -98 -6 -50 -72 -207 -127 -304 -43 -75 -199 -268 -217
-268 -3 0 -22 -14 -41 -31 -58 -51 -209 -135 -305 -169 -63 -22 -121 -34 -195
-40 -238 -21 -419 18 -607 132 l-63 38 -51 -30 c-61 -36 -136 -105 -155 -142
-22 -43 -18 -87 9 -93 12 -3 422 -4 912 -3 l890 3 57 28 c41 20 65 41 87 73
28 43 89 178 96 213 2 9 20 59 40 111 50 129 86 223 140 365 61 163 62 164
120 186 198 74 296 176 297 309 2 110 -48 196 -141 245 -17 8 -31 20 -31 26 0
5 26 53 59 107 61 101 171 297 171 305 0 2 -17 16 -38 30 l-39 25 -76 -127
c-43 -70 -77 -131 -77 -135 0 -3 -11 -23 -23 -44 -13 -20 -39 -63 -58 -94 -22
-39 -40 -58 -53 -58 -18 0 -19 7 -12 234 8 259 11 246 -58 246 l-33 0 -7 -92z"/>
</g>
</svg>
