<?xml version="1.0" standalone="no"?>
<!DOCTYPE svg PUBLIC "-//W3C//DTD SVG 20010904//EN"
 "http://www.w3.org/TR/2001/REC-SVG-20010904/DTD/svg10.dtd">
<svg version="1.0" xmlns="http://www.w3.org/2000/svg"
 width="1022.000000pt" height="520.000000pt" viewBox="0 0 1022.000000 520.000000"
 preserveAspectRatio="xMidYMid meet">

<g transform="translate(0.000000,520.000000) scale(0.100000,-0.100000)"
fill="#000000" stroke="none">
<path d="M2401 4664 l-21 -27 0 -2117 0 -2117 21 -27 20 -26 2259 0 2259 0 20
26 c26 33 27 58 1 84 -18 18 -33 20 -195 20 l-175 0 0 114 c0 83 -4 117 -13
125 -8 6 -17 8 -20 4 -4 -3 -7 -60 -7 -125 l0 -118 -210 0 -209 0 -3 123 c-3
100 -6 122 -18 122 -12 0 -15 -22 -18 -123 l-3 -122 -209 0 -210 0 0 118 c0
65 -3 122 -7 125 -3 4 -12 2 -20 -4 -9 -8 -13 -42 -13 -125 l0 -114 -205 0
-205 0 0 114 c0 88 -3 116 -15 126 -21 18 -24 4 -27 -125 l-3 -110 -207 -3
-208 -2 0 120 c0 113 -1 120 -20 120 -18 0 -20 -8 -22 -117 l-3 -118 -207 -3
-208 -2 0 119 c0 77 -4 122 -11 127 -21 13 -29 -22 -29 -133 l0 -113 -205 0
-205 0 0 104 c0 112 -5 136 -26 136 -10 0 -14 -26 -16 -118 l-3 -117 -210 0
-210 0 -3 118 c-2 106 -4 118 -20 115 -15 -3 -17 -19 -20 -121 l-3 -117 -414
0 -415 0 0 260 0 259 97 3 c83 3 98 6 101 20 3 15 -8 18 -95 20 l-98 3 -3 208
-2 207 100 0 c93 0 100 1 100 20 0 18 -8 20 -97 22 l-98 3 -3 207 -2 207 97 3
c83 3 98 6 101 20 3 15 -8 18 -95 20 l-98 3 -3 208 -2 207 100 0 c93 0 100 1
100 20 0 19 -7 20 -100 20 l-100 0 0 210 0 210 101 0 c90 0 100 2 97 18 -3 14
-17 17 -101 20 l-97 3 0 204 0 205 94 0 c66 0 97 4 105 13 18 23 2 27 -101 27
l-98 0 0 210 0 210 100 0 c93 0 100 1 100 20 0 19 -7 20 -100 20 l-100 0 0
210 0 210 98 0 c103 0 119 4 101 27 -8 9 -39 13 -105 13 l-94 0 0 198 c0 195
0 199 -23 220 -31 29 -61 28 -86 -4z"/>
<path d="M5395 4349 c-432 -35 -796 -338 -913 -759 -24 -86 -26 -112 -27 -270
0 -207 18 -294 92 -450 57 -119 120 -205 225 -306 187 -179 390 -266 678 -291
67 -6 283 29 378 61 77 26 212 97 255 132 16 13 32 24 37 24 4 0 297 -292 650
-650 694 -702 676 -686 754 -660 49 16 80 62 80 120 0 25 -7 56 -15 68 -14 20
-570 588 -1056 1080 -123 123 -223 227 -223 229 0 3 16 27 35 53 51 69 121
224 147 321 30 114 32 381 5 509 -16 75 -113 303 -135 320 -4 3 -20 24 -35 48
-45 70 -182 199 -270 256 -207 132 -420 185 -662 165z m260 -268 c17 -6 59
-20 95 -31 187 -58 373 -233 454 -428 18 -42 39 -102 47 -132 18 -73 18 -279
0 -350 -59 -228 -210 -419 -413 -521 -127 -64 -202 -81 -353 -82 -148 0 -215
16 -351 83 -164 80 -302 226 -364 385 -13 33 -27 65 -31 70 -29 43 -42 312
-20 410 30 130 109 274 205 373 117 122 254 194 441 233 51 10 250 3 290 -10z"/>
<path d="M5423 3913 c-9 -3 -13 -27 -13 -68 0 -63 0 -63 -34 -75 -48 -15 -125
-87 -147 -135 -55 -121 9 -249 160 -317 116 -52 128 -58 160 -90 26 -25 31
-38 31 -77 -1 -53 -12 -71 -59 -96 -46 -23 -113 -22 -186 5 -104 37 -100 38
-119 -16 -9 -26 -16 -54 -16 -61 0 -16 64 -46 142 -68 l57 -15 3 -63 3 -62 60
0 60 0 5 69 5 69 44 17 c144 56 210 220 138 343 -42 72 -85 102 -260 182 -49
23 -87 69 -87 106 0 18 11 41 29 61 28 31 31 32 105 31 58 -1 86 -7 112 -22
19 -12 40 -21 45 -21 11 0 49 83 49 108 0 19 -83 62 -118 62 -43 0 -52 10 -52
60 0 73 -5 80 -59 79 -25 0 -52 -3 -58 -6z"/>
<path d="M3100 2520 l0 -1550 228 2 227 3 0 1545 0 1545 -227 3 -228 2 0
-1550z"/>
<path d="M4090 1920 l0 -950 230 0 230 0 0 820 0 820 -45 69 c-24 39 -58 97
-75 130 l-30 61 -155 0 -155 0 0 -950z"/>
<path d="M6100 1645 l0 -675 230 0 230 0 0 449 0 449 -221 226 c-122 124 -226
226 -230 226 -5 0 -9 -304 -9 -675z"/>
<path d="M5070 1595 l0 -625 230 0 230 0 0 589 0 588 -112 6 c-111 6 -206 22
-300 51 l-48 15 0 -624z"/>
</g>
</svg>
