<?xml version="1.0" standalone="no"?>
<!DOCTYPE svg PUBLIC "-//W3C//DTD SVG 20010904//EN"
 "http://www.w3.org/TR/2001/REC-SVG-20010904/DTD/svg10.dtd">
<svg version="1.0" xmlns="http://www.w3.org/2000/svg"
 width="900.000000pt" height="512.000000pt" viewBox="0 0 900.000000 512.000000"
 preserveAspectRatio="xMidYMid meet">

<g transform="translate(0.000000,512.000000) scale(0.100000,-0.100000)"
fill="#000000" stroke="none">
<path d="M3950 4897 l0 -222 -67 -19 c-108 -30 -265 -93 -380 -152 l-107 -55
-155 155 -156 156 -393 -393 -392 -392 156 -156 155 -155 -55 -107 c-59 -115
-122 -272 -152 -379 l-19 -68 -222 0 -223 0 0 -550 0 -550 223 0 223 0 17 -65
c27 -99 92 -263 153 -382 l55 -107 -155 -155 -156 -156 392 -392 393 -393 156
156 155 155 107 -55 c115 -59 272 -122 380 -152 l67 -19 0 -222 0 -223 550 0
550 0 2 221 3 220 135 45 c74 25 198 76 275 114 l140 70 155 -155 155 -155
392 392 393 393 -155 155 -155 155 70 140 c38 77 89 201 114 275 l45 135 220
3 221 2 0 550 0 550 -221 2 -220 3 -45 135 c-25 74 -76 198 -114 275 l-70 140
155 155 155 155 -392 393 -393 392 -155 -154 -155 -155 -140 69 c-77 38 -201
89 -275 114 l-135 45 -3 220 -2 221 -550 0 -550 0 0 -223z m950 -140 l0 -202
93 -24 c190 -49 413 -143 577 -245 l55 -34 145 144 145 144 283 -282 282 -283
-144 -145 -144 -145 34 -55 c102 -164 196 -387 245 -577 l24 -93 202 0 203 0
0 -400 0 -400 -203 0 -202 0 -24 -92 c-49 -191 -143 -414 -245 -578 l-34 -55
144 -145 144 -145 -282 -283 -283 -282 -145 144 -145 145 -65 -41 c-163 -100
-376 -190 -567 -239 l-93 -24 0 -202 0 -203 -400 0 -400 0 0 203 0 202 -92 24
c-191 49 -414 143 -578 245 l-55 34 -145 -144 -146 -145 -282 283 -282 283
144 145 144 145 -34 55 c-102 164 -196 387 -245 578 l-24 92 -202 0 -203 0 0
400 0 400 203 0 202 0 24 93 c49 190 143 413 245 577 l34 55 -144 145 -144
145 282 283 283 282 145 -144 145 -144 55 34 c164 102 387 196 578 245 l92 24
0 202 0 203 400 0 400 0 0 -203z"/>
<path d="M4400 4670 l0 -80 100 0 100 0 0 80 0 80 -100 0 -100 0 0 -80z"/>
<path d="M4345 4370 c-627 -53 -1185 -432 -1469 -997 -112 -224 -172 -453
-190 -720 l-7 -93 81 0 80 0 0 75 c0 139 39 332 102 505 140 384 441 720 818
910 191 96 477 170 663 170 l77 0 0 80 0 80 -32 -1 c-18 -1 -73 -5 -123 -9z"/>
<path d="M2920 4038 l0 -78 105 0 105 0 0 74 0 75 -105 3 -105 3 0 -77z"/>
<path d="M5973 4113 l-103 -4 0 -74 0 -75 105 0 105 0 0 80 c0 44 -1 79 -2 78
-2 -1 -49 -4 -105 -5z"/>
<path d="M4380 3950 c-328 -27 -635 -172 -870 -409 -76 -76 -189 -218 -179
-224 95 -62 120 -77 123 -77 3 0 32 35 65 78 179 234 436 394 731 458 107 23
313 30 418 14 543 -79 962 -487 1057 -1027 8 -49 15 -114 15 -145 l0 -58 78 0
78 0 -3 63 c-19 358 -158 670 -409 921 -293 294 -691 440 -1104 406z"/>
<path d="M4415 3156 c-116 -55 -123 -184 -19 -323 50 -67 134 -65 189 4 16 21
30 40 30 43 1 3 11 28 24 55 42 92 7 185 -83 226 -54 25 -81 24 -141 -5z"/>
<path d="M4430 2682 c0 -5 7 -17 15 -28 23 -31 15 -224 -10 -224 -12 0 -55 90
-55 115 0 7 -10 39 -22 70 l-22 57 -55 -5 c-67 -7 -90 -23 -166 -119 -33 -41
-73 -92 -90 -113 -16 -20 -34 -46 -39 -56 -5 -11 -13 -19 -18 -19 -4 0 -8 -4
-8 -9 0 -6 -12 -23 -26 -38 -50 -54 -53 -94 -8 -143 25 -28 132 -157 179 -216
17 -20 47 -57 68 -82 l38 -45 -1 -91 c-1 -50 1 -98 4 -106 3 -8 10 -69 16
-134 6 -66 12 -122 15 -124 10 -10 88 -22 153 -22 l72 0 0 63 c0 107 12 197
25 197 10 0 14 -33 16 -124 2 -68 6 -126 9 -129 12 -10 212 10 219 22 5 7 11
65 15 129 4 64 11 121 17 127 5 5 9 51 9 102 l0 94 66 82 c37 45 81 100 98
121 17 22 36 44 42 51 6 6 32 36 58 68 51 63 58 98 26 137 -10 14 -49 63 -85
110 -36 47 -71 92 -78 100 -7 8 -23 31 -37 50 -58 85 -116 120 -197 120 -26 0
-33 -5 -42 -31 -6 -18 -11 -42 -11 -53 0 -12 -4 -26 -9 -31 -5 -6 -18 -35 -29
-65 -32 -89 -48 -78 -55 37 -6 86 -4 101 13 124 10 15 16 29 13 33 -9 9 -123
7 -123 -2z m-232 -534 l-3 -73 -26 40 c-14 22 -36 58 -49 81 l-24 41 50 64 49
64 3 -72 c2 -40 2 -106 0 -145z m644 143 l46 -58 -46 -72 c-26 -39 -50 -71
-54 -71 -5 0 -8 59 -8 130 0 72 4 130 8 130 5 0 29 -26 54 -59z"/>
<path d="M2290 2560 l0 -80 100 0 100 0 0 80 0 80 -100 0 -100 0 0 -80z"/>
<path d="M6510 2560 l0 -80 100 0 100 0 0 80 0 80 -100 0 -100 0 0 -80z"/>
<path d="M3106 2488 c35 -516 320 -950 774 -1178 317 -159 712 -187 1056 -75
232 76 451 220 609 401 77 88 152 197 139 201 -5 2 -34 19 -64 38 l-55 35 -18
-23 c-10 -12 -44 -56 -76 -97 -73 -94 -162 -180 -168 -163 -3 8 -25 -4 -61
-33 -31 -26 -62 -49 -68 -51 -7 -2 -14 -13 -17 -24 -7 -25 -202 -120 -307
-149 -306 -85 -610 -59 -888 76 -64 31 -116 63 -120 73 -10 26 -140 122 -146
108 -7 -17 -158 142 -216 228 -132 195 -220 455 -220 648 l0 57 -79 0 -80 0 5
-72z"/>
<path d="M6160 2485 c0 -139 -39 -332 -102 -505 -161 -442 -536 -817 -978
-978 -173 -63 -366 -102 -505 -102 l-75 0 0 -80 0 -81 93 7 c278 18 510 82
746 204 330 172 599 441 770 770 124 240 187 467 205 748 l7 92 -81 0 -80 0 0
-75z"/>
<path d="M2920 1083 l0 -78 105 3 105 3 0 75 0 74 -105 0 -105 0 0 -77z"/>
<path d="M5870 1086 l0 -75 105 -3 105 -3 0 78 0 77 -105 0 -105 0 0 -74z"/>
<path d="M4400 450 l0 -80 100 0 100 0 0 80 0 80 -100 0 -100 0 0 -80z"/>
</g>
</svg>
